# This file uses centimeters as units for non-parametric coordinates.

mtllib walls.mtl
g default
v -1.055540 0.030092 1.055540
v 1.055540 0.030092 1.055540
v -1.000714 2.141171 1.000714
v 1.000714 2.141171 1.000714
v -1.000714 2.141171 -1.000714
v 1.000714 2.141171 -1.000714
v -1.055540 0.030092 -1.055540
v 1.055540 0.030092 -1.055540
v -1.055540 2.001027 1.055540
v 1.055540 2.001027 1.055540
v 1.055540 2.001028 -1.055540
v -1.055540 2.001028 -1.055540
v -1.012830 2.153951 0.939493
v 1.012830 2.153951 0.939493
v 1.068319 2.012110 0.990964
v 1.068319 0.017312 0.990965
v -1.068319 0.017312 0.990965
v -1.068319 2.012110 0.990965
v 1.001242 0.017312 1.068319
v 1.001243 0.017312 0.990965
v 1.001242 0.017312 -1.068319
v 1.001243 2.012111 -1.068319
v 0.949237 2.153951 -1.012830
v 0.949237 2.153951 0.939493
v 0.949237 2.153951 1.012830
v 1.001242 2.012110 1.068319
v -1.068319 0.017312 -0.995109
v 1.001242 0.017312 -0.995110
v 1.068319 0.017312 -0.995109
v 1.068319 2.012111 -0.995110
v 1.012830 2.153951 -0.943423
v 0.949237 2.153951 -0.943423
v -1.012830 2.153951 -0.943423
v -1.068319 2.012111 -0.995109
v -1.015108 0.017312 1.068319
v -1.015107 0.017312 0.990965
v -1.015108 0.017312 -0.995109
v -1.015108 0.017312 -1.068319
v -1.015107 2.012111 -1.068319
v -0.962382 2.153951 -1.012830
v -0.962382 2.153951 -0.943423
v -0.962382 2.153951 0.939493
v -0.962382 2.153951 1.012830
v -1.015108 2.012110 1.068319
vt 0.375000 0.000000
vt 0.625000 0.000000
vt 0.375000 0.250000
vt 0.625000 0.250000
vt 0.375000 0.500000
vt 0.625000 0.500000
vt 0.375000 0.750000
vt 0.625000 0.750000
vt 0.375000 1.000000
vt 0.625000 1.000000
vt 0.875000 0.000000
vt 0.875000 0.250000
vt 0.125000 0.000000
vt 0.125000 0.250000
vt 0.375000 0.233404
vt 0.625000 0.233404
vt 0.625000 0.516596
vt 0.875000 0.233404
vt 0.125000 0.233404
vt 0.375000 0.516596
vt 0.365949 0.250000
vt 0.375000 0.259051
vt 0.625000 0.259051
vt 0.634051 0.250000
vt 0.634051 0.233404
vt 0.625000 0.990949
vt 0.634051 0.000000
vt 0.365949 0.000000
vt 0.375000 0.990949
vt 0.365949 0.233404
vt 0.617151 0.000000
vt 0.617151 1.000000
vt 0.617152 0.990949
vt 0.617151 0.750000
vt 0.617152 0.516596
vt 0.617151 0.500000
vt 0.617152 0.259051
vt 0.617151 0.250000
vt 0.617151 0.233404
vt 0.133566 0.000000
vt 0.375000 0.758566
vt 0.617151 0.758566
vt 0.625000 0.758566
vt 0.866434 0.000000
vt 0.866434 0.233404
vt 0.625000 0.491434
vt 0.866434 0.250000
vt 0.617151 0.491434
vt 0.133566 0.250000
vt 0.375000 0.491434
vt 0.133566 0.233404
vt 0.381226 0.000000
vt 0.381226 1.000000
vt 0.381226 0.990949
vt 0.381226 0.758566
vt 0.381226 0.750000
vt 0.381226 0.516596
vt 0.381226 0.500000
vt 0.381226 0.491434
vt 0.381226 0.259051
vt 0.381226 0.250000
vt 0.381226 0.233404
vn 0.004684 0.365855 0.930660
vn 0.005804 0.020864 0.999765
vn 0.752009 0.023713 0.658727
vn 0.661622 0.480148 0.575946
vn 0.003141 0.999991 -0.002878
vn 0.000115 1.000000 -0.000105
vn 0.000121 1.000000 0.000105
vn 0.003343 0.999990 0.002899
vn 0.005804 0.020863 -0.999765
vn 0.004684 0.365857 -0.930659
vn 0.645841 0.480700 -0.593141
vn 0.734984 0.023624 -0.677673
vn 0.000115 -1.000000 0.000100
vn 0.000109 -1.000000 -0.000100
vn 0.002977 -0.999992 -0.002728
vn 0.003168 -0.999991 0.002747
vn 0.930644 0.365894 0.004826
vn 0.999762 0.020965 0.005965
vn 0.999763 0.020928 -0.005939
vn 0.930646 0.365889 -0.004799
vn -0.930646 0.365889 -0.004799
vn -0.999763 0.020928 -0.005939
vn -0.999762 0.020965 0.005965
vn -0.930644 0.365894 0.004826
vn 0.005276 0.000000 0.999986
vn 0.751566 0.000000 0.659658
vn 0.999985 0.000000 0.005460
vn 0.999985 -0.000000 -0.005423
vn 0.005276 -0.000000 -0.999986
vn 0.734772 -0.000000 -0.678314
vn -0.999985 0.000000 -0.005423
vn -0.999985 0.000000 0.005460
vn 0.002799 0.999993 0.002427
vn 0.120651 0.987167 0.104620
vn 0.002652 -0.999994 0.002299
vn 0.114533 -0.988442 0.099317
vn -0.814958 0.000000 0.579520
vn -0.816168 0.023003 0.577356
vn -0.722760 0.475128 0.501868
vn -0.002535 -0.999995 0.001743
vn -0.000116 -1.000000 0.000080
vn -0.000110 -1.000000 -0.000080
vn -0.005044 0.000000 -0.999987
vn -0.005631 0.020735 -0.999769
vn -0.004557 0.365825 -0.930672
vn -0.000116 1.000000 -0.000084
vn -0.000122 1.000000 0.000084
vn -0.002677 0.999995 0.001841
vn -0.004557 0.365824 0.930673
vn -0.005631 0.020735 0.999769
vn -0.005044 0.000000 0.999987
vn -0.002535 -0.999995 -0.001843
vn 0.002653 -0.999994 -0.002431
vn 0.115106 -0.987739 -0.105465
vn 0.002800 0.999993 -0.002565
vn 0.121245 0.986387 -0.111089
vn -0.002677 0.999995 -0.001946
vn -0.801866 0.022948 -0.597063
vn -0.709136 0.476689 -0.519513
vn -0.800799 0.000000 -0.598933
vn -0.003997 -0.999988 0.002750
vn -0.148156 -0.983698 0.101916
vn -0.003756 -0.999989 -0.002730
vn -0.148913 -0.982909 -0.108236
vn -0.003963 0.999988 -0.002881
vn -0.156770 0.981040 -0.113946
vn -0.004217 0.999987 0.002901
vn -0.155991 0.981913 0.107303
s 1
g pCube1
usemtl initialShadingGroup
f 25/38/1 26/39/2 10/16/3 4/4/4
s 2
f 31/46/5 32/48/6 24/37/7 14/23/8
s 1
f 22/35/9 23/36/10 6/6/11 11/17/12
s 4
f 20/33/13 28/42/14 29/43/15 16/26/16
s 1
f 14/24/17 15/25/18 30/45/19 31/47/20
f 33/49/21 34/51/22 18/30/23 13/21/24
f 26/39/2 19/31/25 2/2/26 10/16/3
f 15/25/18 16/27/27 29/44/28 30/45/19
f 21/34/29 22/35/9 11/17/12 8/8/30
f 34/51/22 27/40/31 17/28/32 18/30/23
s 2
f 24/37/7 25/38/33 4/4/34 14/23/8
s 1
f 10/16/3 15/25/18 14/24/17 4/4/4
f 2/2/26 16/27/27 15/25/18 10/16/3
s 4
f 19/32/35 20/33/13 16/26/16 2/10/36
s 1
f 18/30/23 17/28/32 1/1/37 9/15/38
f 13/21/24 18/30/23 9/15/38 3/3/39
s 4
f 35/53/40 36/54/41 20/33/13 19/32/35
f 36/54/41 37/55/42 28/42/14 20/33/13
s 1
f 38/56/43 39/57/44 22/35/9 21/34/29
f 39/57/44 40/58/45 23/36/10 22/35/9
s 2
f 41/59/46 42/60/47 24/37/7 32/48/6
f 42/60/47 43/61/48 25/38/33 24/37/7
s 1
f 43/61/49 44/62/50 26/39/2 25/38/1
f 44/62/50 35/52/51 19/31/25 26/39/2
s 4
f 37/55/42 38/56/52 21/34/53 28/42/14
f 29/43/15 28/42/14 21/34/53 8/8/54
s 1
f 30/45/19 29/44/28 8/11/30 11/18/12
f 31/47/20 30/45/19 11/18/12 6/12/11
s 2
f 23/36/55 32/48/6 31/46/5 6/6/56
f 40/58/57 41/59/46 32/48/6 23/36/55
s 1
f 12/19/58 34/51/22 33/49/21 5/14/59
f 7/13/60 27/40/31 34/51/22 12/19/58
s 4
f 17/29/61 36/54/41 35/53/40 1/9/62
f 27/41/63 37/55/42 36/54/41 17/29/61
f 7/7/64 38/56/52 37/55/42 27/41/63
s 1
f 12/20/58 39/57/44 38/56/43 7/7/60
f 5/5/59 40/58/45 39/57/44 12/20/58
s 2
f 33/50/65 41/59/46 40/58/57 5/5/66
f 13/22/67 42/60/47 41/59/46 33/50/65
f 3/3/68 43/61/48 42/60/47 13/22/67
s 1
f 9/15/38 44/62/50 43/61/49 3/3/39
f 1/1/37 35/52/51 44/62/50 9/15/38
